<svg xmlns="http://www.w3.org/2000/svg" viewBox="0 0 24 24"><path d="M10.7,2.44L9.8,3.84L7.8,4.34L8.3,6.34L7.1,7.54L5.1,7L4.6,9L2.6,8.5L2,10.5L3.4,11.4L2,14.2L3.8,14.6L4.3,16.6L6.3,16.1L7.5,17.3L7,19.3L9,19.8L8.5,21.8L10.5,22.4L11.4,21L14.2,22.4L14.6,20.6L16.6,20.1L16.1,18.1L17.3,16.9L19.3,17.4L19.8,15.4L21.8,15.9L22.4,13.9L21,13.06L22.4,10.26L20.6,9.86L20.1,7.86L18.1,8.36L16.9,7.16L17.4,5.16L15.4,4.66L15.9,2.66L13.9,2.16L13.06,3.56L10.7,2.44M10.1,8.2L15.8,13.9L14.4,15.3L8.7,9.6L10.1,8.2Z" /></svg>